<?xml version="1.0" encoding="UTF-8"?>
<!DOCTYPE svg PUBLIC "-//W3C//DTD SVG 1.1//EN" "http://www.w3.org/Graphics/SVG/1.1/DTD/svg11.dtd">
<svg xmlns="http://www.w3.org/2000/svg" version="1.1" width="64px" height="64px" style="shape-rendering:geometricPrecision; text-rendering:geometricPrecision; image-rendering:optimizeQuality; fill-rule:evenodd; clip-rule:evenodd" xmlns:xlink="http://www.w3.org/1999/xlink">
<g><path style="opacity:0.842" fill="#23e5b2" d="M 29.5,10.5 C 31.1667,10.5 32.8333,10.5 34.5,10.5C 38.1384,14.4741 41.8051,18.4741 45.5,22.5C 43.8333,22.5 42.1667,22.5 40.5,22.5C 36.9118,18.572 33.2452,14.572 29.5,10.5 Z"/></g>
<g><path style="opacity:0.888" fill="#20eda9" d="M 34.5,10.5 C 37.1667,10.5 39.8333,10.5 42.5,10.5C 44.5491,13.5497 47.2157,15.883 50.5,17.5C 49.1667,19.5 47.5,21.1667 45.5,22.5C 41.8051,18.4741 38.1384,14.4741 34.5,10.5 Z"/></g>
<g><path style="opacity:0.779" fill="#1af89d" d="M 42.5,10.5 C 46.8333,10.5 51.1667,10.5 55.5,10.5C 55.031,13.6433 53.3644,15.9767 50.5,17.5C 47.2157,15.883 44.5491,13.5497 42.5,10.5 Z"/></g>
<g><path style="opacity:1" fill="#48a9cd" d="M 16.5,10.5 C 18.4304,14.2663 21.2637,17.2663 25,19.5C 25.4828,20.448 25.6495,21.448 25.5,22.5C 24.5,22.5 23.5,22.5 22.5,22.5C 20.9792,18.8848 18.3125,16.3848 14.5,15C 15.3366,13.9887 15.67,12.8221 15.5,11.5C 15.5,10.8333 15.8333,10.5 16.5,10.5 Z"/></g>
<g><path style="opacity:1" fill="#3ac0c5" d="M 19.5,10.5 C 20.5,10.5 21.5,10.5 22.5,10.5C 22.9613,13.3033 24.2947,15.6366 26.5,17.5C 22.4629,16.7963 20.1295,14.463 19.5,10.5 Z"/></g>
<g><path style="opacity:1" fill="#31d0be" d="M 22.5,10.5 C 23.5,10.5 24.5,10.5 25.5,10.5C 28.9683,14.7895 32.635,18.7895 36.5,22.5C 34.8333,22.5 33.1667,22.5 31.5,22.5C 30.8333,19.8333 29.1667,18.1667 26.5,17.5C 24.2947,15.6366 22.9613,13.3033 22.5,10.5 Z"/></g>
<g><path style="opacity:1" fill="#27dfb8" d="M 25.5,10.5 C 26.8333,10.5 28.1667,10.5 29.5,10.5C 33.2452,14.572 36.9118,18.572 40.5,22.5C 39.1667,22.5 37.8333,22.5 36.5,22.5C 32.635,18.7895 28.9683,14.7895 25.5,10.5 Z"/></g>
<g><path style="opacity:1" fill="#42b4c9" d="M 16.5,10.5 C 17.5,10.5 18.5,10.5 19.5,10.5C 20.1295,14.463 22.4629,16.7963 26.5,17.5C 27.1112,19.7746 28.4446,21.4412 30.5,22.5C 28.8333,22.5 27.1667,22.5 25.5,22.5C 25.6495,21.448 25.4828,20.448 25,19.5C 21.2637,17.2663 18.4304,14.2663 16.5,10.5 Z"/></g>
<g><path style="opacity:0.733" fill="#509cd3" d="M 15.5,11.5 C 15.67,12.8221 15.3366,13.9887 14.5,15C 18.3125,16.3848 20.9792,18.8848 22.5,22.5C 21.1667,22.5 19.8333,22.5 18.5,22.5C 16.5808,20.1799 14.5808,17.8466 12.5,15.5C 13.0256,13.7697 14.0256,12.4363 15.5,11.5 Z"/></g>
<g><path style="opacity:0.93" fill="#5a8dd9" d="M 12.5,15.5 C 14.5808,17.8466 16.5808,20.1799 18.5,22.5C 17.1667,22.5 15.8333,22.5 14.5,22.5C 14.385,20.0532 13.385,18.0532 11.5,16.5C 11.5,15.8333 11.8333,15.5 12.5,15.5 Z"/></g>
<g><path style="opacity:1" fill="#3bbec5" d="M 26.5,17.5 C 29.1667,18.1667 30.8333,19.8333 31.5,22.5C 31.1667,22.5 30.8333,22.5 30.5,22.5C 28.4446,21.4412 27.1112,19.7746 26.5,17.5 Z"/></g>
<g><path style="opacity:1" fill="#6282dd" d="M 11.5,16.5 C 13.385,18.0532 14.385,20.0532 14.5,22.5C 13.8333,22.5 13.1667,22.5 12.5,22.5C 11.8333,20.8333 11.1667,19.1667 10.5,17.5C 10.5,16.8333 10.8333,16.5 11.5,16.5 Z"/></g>
<g><path style="opacity:0.012" fill="#6d73e4" d="M 10.5,17.5 C 11.1667,19.1667 11.8333,20.8333 12.5,22.5C 6.95244,22.4211 6.28577,20.7545 10.5,17.5 Z"/></g>
<g><path style="opacity:0.836" fill="#7f5aef" d="M 9.5,25.5 C 10.5,25.5 11.5,25.5 12.5,25.5C 15.584,30.9197 19.9173,34.9197 25.5,37.5C 24.1667,37.5 22.8333,37.5 21.5,37.5C 17.1938,33.8604 13.1938,29.8604 9.5,25.5 Z"/></g>
<g><path style="opacity:0.468" fill="#3cbdc6" d="M 35.5,25.5 C 36.1667,25.5 36.8333,25.5 37.5,25.5C 38.865,27.8598 40.865,29.5265 43.5,30.5C 44.8103,33.4732 46.8103,35.8065 49.5,37.5C 48.8333,37.5 48.1667,37.5 47.5,37.5C 45.3533,35.5305 43.02,33.6971 40.5,32C 38.2585,30.2297 36.5918,28.0631 35.5,25.5 Z"/></g>
<g><path style="opacity:1" fill="#6a77e2" d="M 14.5,25.5 C 16.5,25.5 18.5,25.5 20.5,25.5C 23.1667,29.5 25.8333,33.5 28.5,37.5C 28.1667,37.5 27.8333,37.5 27.5,37.5C 23.1667,33.5 18.8333,29.5 14.5,25.5 Z"/></g>
<g><path style="opacity:1" fill="#35c9c1" d="M 37.5,25.5 C 38.5,25.5 39.5,25.5 40.5,25.5C 41.4728,27.1494 42.4728,28.816 43.5,30.5C 40.865,29.5265 38.865,27.8598 37.5,25.5 Z"/></g>
<g><path style="opacity:1" fill="#7568e9" d="M 12.5,25.5 C 13.1667,25.5 13.8333,25.5 14.5,25.5C 18.8333,29.5 23.1667,33.5 27.5,37.5C 26.8333,37.5 26.1667,37.5 25.5,37.5C 19.9173,34.9197 15.584,30.9197 12.5,25.5 Z"/></g>
<g><path style="opacity:1" fill="#509cd2" d="M 26.5,25.5 C 27.1667,25.5 27.8333,25.5 28.5,25.5C 30.2026,28.1921 32.536,30.1921 35.5,31.5C 37.2776,33.264 38.6109,35.264 39.5,37.5C 38.1667,37.5 36.8333,37.5 35.5,37.5C 31.6978,34.0407 28.6978,30.0407 26.5,25.5 Z"/></g>
<g><path style="opacity:1" fill="#2fd3bd" d="M 40.5,25.5 C 41.1667,25.5 41.8333,25.5 42.5,25.5C 46.0794,29.6235 50.0794,33.2901 54.5,36.5C 53.791,37.404 52.791,37.7373 51.5,37.5C 49.4567,34.4569 46.7901,32.1236 43.5,30.5C 42.4728,28.816 41.4728,27.1494 40.5,25.5 Z"/></g>
<g><path style="opacity:1" fill="#647fde" d="M 20.5,25.5 C 21.1667,25.5 21.8333,25.5 22.5,25.5C 22.369,26.2389 22.5357,26.9056 23,27.5C 27.1381,29.7987 29.9715,33.132 31.5,37.5C 30.5,37.5 29.5,37.5 28.5,37.5C 25.8333,33.5 23.1667,29.5 20.5,25.5 Z"/></g>
<g><path style="opacity:1" fill="#5a8dd8" d="M 22.5,25.5 C 23.8333,25.5 25.1667,25.5 26.5,25.5C 28.6978,30.0407 31.6978,34.0407 35.5,37.5C 34.1667,37.5 32.8333,37.5 31.5,37.5C 29.9715,33.132 27.1381,29.7987 23,27.5C 22.5357,26.9056 22.369,26.2389 22.5,25.5 Z"/></g>
<g><path style="opacity:1" fill="#49a7ce" d="M 28.5,25.5 C 29.8333,25.5 31.1667,25.5 32.5,25.5C 35.8333,29.5 39.1667,33.5 42.5,37.5C 41.5,37.5 40.5,37.5 39.5,37.5C 38.6109,35.264 37.2776,33.264 35.5,31.5C 32.536,30.1921 30.2026,28.1921 28.5,25.5 Z"/></g>
<g><path style="opacity:0.841" fill="#27dfb7" d="M 42.5,25.5 C 44.1992,25.3398 45.8659,25.5065 47.5,26C 49.628,29.1301 52.128,31.9634 55,34.5C 55.6917,35.4368 55.525,36.1034 54.5,36.5C 50.0794,33.2901 46.0794,29.6235 42.5,25.5 Z"/></g>
<g><path style="opacity:0.922" fill="#44afcb" d="M 32.5,25.5 C 33.5,25.5 34.5,25.5 35.5,25.5C 36.5918,28.0631 38.2585,30.2297 40.5,32C 43.02,33.6971 45.3533,35.5305 47.5,37.5C 45.8333,37.5 44.1667,37.5 42.5,37.5C 39.1667,33.5 35.8333,29.5 32.5,25.5 Z"/></g>
<g><path style="opacity:1" fill="#35c8c2" d="M 43.5,30.5 C 46.7901,32.1236 49.4567,34.4569 51.5,37.5C 50.8333,37.5 50.1667,37.5 49.5,37.5C 46.8103,35.8065 44.8103,33.4732 43.5,30.5 Z"/></g>
<g><path style="opacity:0.843" fill="#8750f3" d="M 9.5,25.5 C 13.1938,29.8604 17.1938,33.8604 21.5,37.5C 19.8008,37.6602 18.1341,37.4935 16.5,37C 13.1168,33.9533 10.1168,30.62 7.5,27C 7.83611,25.9701 8.50278,25.4701 9.5,25.5 Z"/></g>
<g><path style="opacity:0.788" fill="#8c4df6" d="M 17.5,40.5 C 20.1667,40.5 22.8333,40.5 25.5,40.5C 25.0825,41.2216 24.4158,41.7216 23.5,42C 27.7598,45.8191 32.0931,49.3191 36.5,52.5C 33.8333,52.5 31.1667,52.5 28.5,52.5C 25.6824,49.4951 22.5158,46.8284 19,44.5C 18.2086,43.255 17.7086,41.9217 17.5,40.5 Z"/></g>
<g><path style="opacity:0.601" fill="#41b4c9" d="M 49.5,40.5 C 51.5,40.5 53.5,40.5 55.5,40.5C 55.7271,42.9328 54.7271,44.5994 52.5,45.5C 51.925,43.5887 50.925,41.922 49.5,40.5 Z"/></g>
<g><path style="opacity:1" fill="#5594d6" d="M 39.5,40.5 C 41.1667,40.5 42.8333,40.5 44.5,40.5C 46.4545,42.8259 48.4545,45.1592 50.5,47.5C 50.1667,48.5 49.5,49.1667 48.5,49.5C 45.1938,46.8605 42.1938,43.8605 39.5,40.5 Z"/></g>
<g><path style="opacity:0.844" fill="#4ca3d0" d="M 44.5,40.5 C 46.1667,40.5 47.8333,40.5 49.5,40.5C 50.925,41.922 51.925,43.5887 52.5,45.5C 52.1667,46.5 51.5,47.1667 50.5,47.5C 48.4545,45.1592 46.4545,42.8259 44.5,40.5 Z"/></g>
<g><path style="opacity:1" fill="#6183dd" d="M 36.5,40.5 C 37.5,40.5 38.5,40.5 39.5,40.5C 42.1938,43.8605 45.1938,46.8605 48.5,49.5C 48.1667,50.5 47.5,51.1667 46.5,51.5C 43.6063,47.3973 40.273,43.7306 36.5,40.5 Z"/></g>
<g><path style="opacity:1" fill="#6c74e3" d="M 34.5,40.5 C 35.1667,40.5 35.8333,40.5 36.5,40.5C 40.273,43.7306 43.6063,47.3973 46.5,51.5C 45.4324,52.4345 44.099,52.7678 42.5,52.5C 39.8333,48.5 37.1667,44.5 34.5,40.5 Z"/></g>
<g><path style="opacity:0.754" fill="#9645fd" d="M 17.5,40.5 C 17.7086,41.9217 18.2086,43.255 19,44.5C 22.5158,46.8284 25.6824,49.4951 28.5,52.5C 21.5778,52.8122 14.7445,52.4788 8,51.5C 7.33333,50.8333 7.33333,50.1667 8,49.5C 11.1091,46.2184 14.2757,43.2184 17.5,40.5 Z"/></g>
<g><path style="opacity:0.929" fill="#8553f2" d="M 25.5,40.5 C 26.8333,40.5 28.1667,40.5 29.5,40.5C 32.8464,44.7005 36.513,48.7005 40.5,52.5C 39.1667,52.5 37.8333,52.5 36.5,52.5C 32.0931,49.3191 27.7598,45.8191 23.5,42C 24.4158,41.7216 25.0825,41.2216 25.5,40.5 Z"/></g>
<g><path style="opacity:1" fill="#7666e9" d="M 29.5,40.5 C 31.1667,40.5 32.8333,40.5 34.5,40.5C 37.1667,44.5 39.8333,48.5 42.5,52.5C 41.8333,52.5 41.1667,52.5 40.5,52.5C 36.513,48.7005 32.8464,44.7005 29.5,40.5 Z"/></g>
</svg>
